<svg width="40" height="40" viewBox="0 0 40 40" fill="none" xmlns="http://www.w3.org/2000/svg">
<g id="Frame">
<path id="Vector" d="M18.3834 14.2166C18.5062 14.1022 18.6047 13.9642 18.673 13.8109C18.7413 13.6575 18.778 13.492 18.781 13.3242C18.784 13.1563 18.7531 12.9896 18.6902 12.834C18.6274 12.6783 18.5338 12.5369 18.4151 12.4182C18.2964 12.2995 18.155 12.206 17.9993 12.1431C17.8437 12.0802 17.677 12.0494 17.5091 12.0523C17.3413 12.0553 17.1758 12.092 17.0225 12.1603C16.8691 12.2287 16.7311 12.3272 16.6167 12.45L9.95002 19.1166C9.83371 19.2325 9.74143 19.3701 9.67846 19.5217C9.61549 19.6733 9.58307 19.8358 9.58307 20C9.58307 20.1641 9.61549 20.3266 9.67846 20.4782C9.74143 20.6298 9.83371 20.7675 9.95002 20.8833L16.6167 27.55C16.7311 27.6728 16.8691 27.7713 17.0225 27.8396C17.1758 27.9079 17.3413 27.9447 17.5091 27.9476C17.677 27.9506 17.8437 27.9197 17.9993 27.8568C18.155 27.794 18.2964 27.7004 18.4151 27.5817C18.5338 27.463 18.6274 27.3216 18.6902 27.166C18.7531 27.0103 18.784 26.8436 18.781 26.6758C18.778 26.5079 18.7413 26.3424 18.673 26.1891C18.6047 26.0357 18.5062 25.8977 18.3834 25.7833L13.85 21.25H30C30.3315 21.25 30.6495 21.1183 30.8839 20.8839C31.1183 20.6494 31.25 20.3315 31.25 20C31.25 19.6685 31.1183 19.3505 30.8839 19.1161C30.6495 18.8817 30.3315 18.75 30 18.75H13.85L18.3834 14.2166Z" fill="white"/>
</g>
</svg>
