<svg width="30" height="30" viewBox="0 0 30 30" fill="none" xmlns="http://www.w3.org/2000/svg">
<g id="Frame">
<path id="Vector" fill-rule="evenodd" clip-rule="evenodd" d="M2.5 15C4.375 11.5906 9.5 6.40937 15 8.86374C20.625 6.13624 25.625 11.5906 27.5 15C25.625 17.7275 20.5 22.5 15 22.5C9.5 22.5 4.375 17.7275 2.5 15ZM5.81875 14.7019C7.75875 14.0456 11.3644 13.125 15 13.125C18.5919 13.125 22.1562 14.0244 24.1125 14.6787C24.3981 14.7737 24.3819 15.1775 24.0937 15.2637L24.0781 15.2687C22.1875 15.8375 18.7375 16.875 15 16.875C11.2 16.875 7.69812 15.8594 5.83 15.2669C5.55 15.1781 5.54062 14.7956 5.81812 14.7019H5.81875Z" fill="#002E53"/>
</g>
</svg>
