<svg width="30" height="30" viewBox="0 0 30 30" fill="none" xmlns="http://www.w3.org/2000/svg">
<g id="Frame">
<path id="Vector" d="M25 6.25H16.25V5C16.25 4.66848 16.1183 4.35054 15.8839 4.11612C15.6495 3.8817 15.3315 3.75 15 3.75C14.6685 3.75 14.3505 3.8817 14.1161 4.11612C13.8817 4.35054 13.75 4.66848 13.75 5V6.25H5C4.66848 6.25 4.35054 6.3817 4.11612 6.61612C3.8817 6.85054 3.75 7.16848 3.75 7.5C3.75 7.83152 3.8817 8.14946 4.11612 8.38388C4.35054 8.6183 4.66848 8.75 5 8.75H19.8525C19.2906 12.4968 17.5682 15.9732 14.9275 18.69C13.0976 16.8132 11.6989 14.5601 10.8288 12.0875C10.7193 11.7744 10.49 11.5175 10.1913 11.3735C9.8925 11.2294 9.54875 11.21 9.23563 11.3194C8.9225 11.4288 8.66567 11.6581 8.52162 11.9569C8.37756 12.2556 8.3581 12.5994 8.4675 12.9125C9.44725 15.697 11.0163 18.2373 13.0675 20.36C10.9525 22.0283 8.48775 23.197 5.8575 23.7788C5.5563 23.8445 5.29003 24.0192 5.10983 24.2693C4.92963 24.5195 4.84822 24.8274 4.88124 25.1339C4.91426 25.4404 5.05939 25.7239 5.28874 25.9299C5.51808 26.1359 5.81546 26.2499 6.12375 26.25C6.2141 26.25 6.30419 26.2403 6.3925 26.2212C9.52576 25.5301 12.4514 24.1086 14.9312 22.0725C17.4173 24.1069 20.347 25.5281 23.4838 26.2212C23.8062 26.2881 24.1421 26.2251 24.4183 26.0458C24.6945 25.8664 24.8888 25.5854 24.959 25.2636C25.0291 24.9418 24.9695 24.6053 24.7929 24.3273C24.6164 24.0493 24.3373 23.8521 24.0162 23.7788C21.3777 23.1983 18.9039 22.0306 16.7788 20.3625C19.8352 17.1888 21.7936 13.1188 22.3662 8.75H25C25.3315 8.75 25.6495 8.6183 25.8839 8.38388C26.1183 8.14946 26.25 7.83152 26.25 7.5C26.25 7.16848 26.1183 6.85054 25.8839 6.61612C25.6495 6.3817 25.3315 6.25 25 6.25Z" fill="#002E53"/>
</g>
</svg>
