<svg width="41" height="44" viewBox="0 0 41 44" fill="none" xmlns="http://www.w3.org/2000/svg">
<g id="button/play">
<path id="Ellipse 23" d="M20 41.7124C31.0457 41.7124 40 32.7581 40 21.7124C40 10.6667 31.0457 1.7124 20 1.7124C8.95431 1.7124 0 10.6667 0 21.7124C0 32.7581 8.95431 41.7124 20 41.7124Z" fill="#F39722"/>
<path id="Polygon 1" d="M25.6508 20.1265C25.9288 20.3004 26.1597 20.5503 26.3203 20.8514C26.4808 21.1524 26.5654 21.4939 26.5654 21.8415C26.5654 22.1891 26.4808 22.5306 26.3203 22.8316C26.1597 23.1326 25.9288 23.3826 25.6508 23.5564L17.4188 28.7052C17.1407 28.879 16.8252 28.9705 16.5041 28.9705C16.183 28.9705 15.8675 28.879 15.5895 28.7052C15.3114 28.5314 15.0804 28.2814 14.9199 27.9804C14.7593 27.6793 14.6748 27.3379 14.6748 26.9903V16.6927C14.6748 16.3451 14.7593 16.0036 14.9199 15.7026C15.0804 15.4016 15.3114 15.1516 15.5895 14.9778C15.8675 14.804 16.183 14.7125 16.5041 14.7125C16.8252 14.7125 17.1407 14.804 17.4188 14.9778L25.6508 20.1265Z" fill="white"/>
</g>
</svg>
