<svg width="50" height="50" viewBox="0 0 50 50" fill="none" xmlns="http://www.w3.org/2000/svg">
<g id="Frame">
<path id="Vector" d="M25 4.16666C20.8796 4.16666 16.8516 5.38851 13.4256 7.67771C9.99959 9.9669 7.32933 13.2206 5.75251 17.0274C4.17568 20.8342 3.76311 25.0231 4.56697 29.0644C5.37083 33.1056 7.35501 36.8178 10.2686 39.7314C13.1822 42.645 16.8943 44.6292 20.9356 45.433C24.9769 46.2369 29.1658 45.8243 32.9726 44.2475C36.7794 42.6707 40.0331 40.0004 42.3223 36.5744C44.6115 33.1483 45.8333 29.1204 45.8333 25C45.8333 22.2641 45.2945 19.555 44.2475 17.0274C43.2005 14.4998 41.6659 12.2032 39.7314 10.2686C37.7968 8.33404 35.5002 6.79947 32.9726 5.7525C30.445 4.70553 27.7359 4.16666 25 4.16666ZM20.8333 34.375V15.625L33.3333 25L20.8333 34.375Z" fill="#002E53"/>
</g>
</svg>
