<svg width="20" height="21" viewBox="0 0 20 21" fill="none" xmlns="http://www.w3.org/2000/svg">
<g id="icons / award" clip-path="url(#clip0_252_239)">
<path id="Vector (Stroke)" fill-rule="evenodd" clip-rule="evenodd" d="M9.99996 2.16667C7.23854 2.16667 4.99996 4.40524 4.99996 7.16667C4.99996 9.92809 7.23854 12.1667 9.99996 12.1667C12.7614 12.1667 15 9.92809 15 7.16667C15 4.40524 12.7614 2.16667 9.99996 2.16667ZM3.3333 7.16667C3.3333 3.48477 6.31807 0.5 9.99996 0.5C13.6819 0.5 16.6666 3.48477 16.6666 7.16667C16.6666 10.8486 13.6819 13.8333 9.99996 13.8333C6.31807 13.8333 3.3333 10.8486 3.3333 7.16667Z" fill="#161719"/>
<path id="Vector (Stroke)_2" fill-rule="evenodd" clip-rule="evenodd" d="M13.0487 11.2406C13.505 11.18 13.9239 11.5008 13.9844 11.9571L14.9928 19.5571C15.0348 19.8743 14.8916 20.1875 14.6241 20.3632C14.3567 20.5389 14.0123 20.5459 13.7379 20.3813L9.99999 18.1385L6.26207 20.3813C5.98768 20.5459 5.64324 20.5389 5.37579 20.3632C5.10834 20.1875 4.96511 19.8742 5.00724 19.557L6.01558 11.9653C6.07617 11.5091 6.49515 11.1883 6.95138 11.2489C7.40761 11.3095 7.72833 11.7285 7.66774 12.1847L6.88703 18.0626L9.57124 16.4521C9.83515 16.2938 10.1648 16.2938 10.4287 16.4521L13.1132 18.0628L12.3322 12.1763C12.2717 11.72 12.5925 11.3011 13.0487 11.2406Z" fill="#161719"/>
</g>
<defs>
<clipPath id="clip0_252_239">
<rect width="20" height="20" fill="white" transform="translate(0 0.5)"/>
</clipPath>
</defs>
</svg>
