<svg width="30" height="30" viewBox="0 0 30 30" fill="none" xmlns="http://www.w3.org/2000/svg">
<g id="Frame">
<g id="Group">
<path id="Vector" d="M15 15V11.875L24.375 2.5L27.5 5.625L18.125 15H15Z" stroke="#002E53" stroke-width="2" stroke-linecap="round" stroke-linejoin="round"/>
<path id="Vector_2" d="M10 15H5.625C4.7962 15 4.00134 15.3292 3.41529 15.9153C2.82924 16.5013 2.5 17.2962 2.5 18.125C2.5 18.9538 2.82924 19.7487 3.41529 20.3347C4.00134 20.9208 4.7962 21.25 5.625 21.25H24.375C25.2038 21.25 25.9987 21.5792 26.5847 22.1653C27.1708 22.7513 27.5 23.5462 27.5 24.375C27.5 25.2038 27.1708 25.9987 26.5847 26.5847C25.9987 27.1708 25.2038 27.5 24.375 27.5H11.25" stroke="#002E53" stroke-width="2" stroke-linecap="round" stroke-linejoin="round"/>
</g>
</g>
</svg>
