<svg width="75" height="75" viewBox="0 0 75 75" fill="none" xmlns="http://www.w3.org/2000/svg">
<g id="Frame" clip-path="url(#clip0_118_6005)">
<path id="Vector" d="M9.375 0C6.8886 0 4.50403 0.987721 2.74587 2.74587C0.987721 4.50403 0 6.8886 0 9.375L0 65.625C0 68.1114 0.987721 70.496 2.74587 72.2541C4.50403 74.0123 6.8886 75 9.375 75H65.625C68.1114 75 70.496 74.0123 72.2541 72.2541C74.0123 70.496 75 68.1114 75 65.625V9.375C75 6.8886 74.0123 4.50403 72.2541 2.74587C70.496 0.987721 68.1114 0 65.625 0L9.375 0ZM37.4719 56.9906C30.1125 56.9906 25.0312 52.7625 24.7266 47.0766H30.525C31.1812 50.4516 34.425 51.9094 37.6922 51.9094C41.4 51.9094 45.0516 49.1109 45.0516 44.0297C45.0516 39.4969 41.6203 36.6703 37.6359 36.6703C34.0406 36.6703 31.8141 38.7797 30.9094 40.4578H25.5234L27.1453 18.75H49.2V23.9203H32.2266L31.3219 34.9031H31.6219C32.4188 33.6938 34.9734 31.7156 39.1734 31.7156C45.6562 31.7156 51.1781 36.1406 51.1781 43.8328C51.1781 51.7406 45.6281 56.9859 37.4719 56.9859V56.9906Z" fill="#ECEDEC"/>
</g>
<defs>
<clipPath id="clip0_118_6005">
<rect width="75" height="75" fill="white"/>
</clipPath>
</defs>
</svg>
