<svg width="30" height="30" viewBox="0 0 30 30" fill="none" xmlns="http://www.w3.org/2000/svg">
<g id="Frame">
<path id="Vector" d="M11.85 4.33594C9.73301 3.3252 6.77403 2.83008 2.8125 2.8125C2.43889 2.80742 2.07261 2.91637 1.7625 3.12481C1.50796 3.29685 1.2996 3.52881 1.15575 3.80028C1.01189 4.07175 0.936944 4.37441 0.937503 4.68164V21.4453C0.937503 22.5785 1.74375 23.4334 2.8125 23.4334C6.97676 23.4334 11.1539 23.8225 13.6559 26.1873C13.6901 26.2198 13.7331 26.2415 13.7796 26.2498C13.826 26.258 13.8739 26.2525 13.9172 26.2337C13.9606 26.215 13.9974 26.184 14.0233 26.1444C14.0491 26.1049 14.0627 26.0587 14.0625 26.0115V6.25899C14.0626 6.12572 14.0341 5.99398 13.9789 5.87268C13.9237 5.75138 13.8431 5.64334 13.7426 5.55586C13.1695 5.06592 12.5329 4.65557 11.85 4.33594ZM28.2375 3.12305C27.9272 2.91513 27.5609 2.80679 27.1875 2.8125C23.226 2.83008 20.267 3.32285 18.15 4.33594C17.4672 4.655 16.8304 5.06453 16.2568 5.55352C16.1565 5.64114 16.0761 5.74923 16.021 5.87051C15.966 5.99178 15.9375 6.12344 15.9375 6.25664V26.0104C15.9375 26.0557 15.9508 26.1001 15.9759 26.1378C16.001 26.1756 16.0367 26.2052 16.0785 26.2228C16.1203 26.2403 16.1664 26.2452 16.2109 26.2367C16.2555 26.2282 16.2965 26.2067 16.3289 26.175C17.833 24.6809 20.4727 23.4316 27.1898 23.4322C27.6871 23.4322 28.164 23.2347 28.5157 22.8831C28.8673 22.5314 29.0648 22.0545 29.0648 21.5572V4.68223C29.0655 4.37439 28.9904 4.07112 28.8461 3.79919C28.7018 3.52727 28.4928 3.29505 28.2375 3.12305Z" fill="#002E53"/>
</g>
</svg>
