<svg width="40" height="40" viewBox="0 0 40 40" fill="none" xmlns="http://www.w3.org/2000/svg">
<g id="Frame">
<path id="Vector" d="M18.3833 14.2168C18.5061 14.1023 18.6046 13.9643 18.6729 13.811C18.7412 13.6577 18.778 13.4921 18.7809 13.3243C18.7839 13.1565 18.753 12.9897 18.6902 12.8341C18.6273 12.6784 18.5337 12.5371 18.415 12.4184C18.2963 12.2997 18.1549 12.2061 17.9993 12.1432C17.8436 12.0804 17.6769 12.0495 17.5091 12.0524C17.3413 12.0554 17.1757 12.0921 17.0224 12.1605C16.8691 12.2288 16.7311 12.3273 16.6166 12.4501L9.94996 19.1168C9.83365 19.2326 9.74137 19.3702 9.6784 19.5218C9.61542 19.6734 9.58301 19.8359 9.58301 20.0001C9.58301 20.1642 9.61542 20.3268 9.6784 20.4784C9.74137 20.6299 9.83365 20.7676 9.94996 20.8834L16.6166 27.5501C16.7311 27.6729 16.8691 27.7714 17.0224 27.8397C17.1757 27.908 17.3413 27.9448 17.5091 27.9477C17.6769 27.9507 17.8436 27.9198 17.9993 27.857C18.1549 27.7941 18.2963 27.7005 18.415 27.5818C18.5337 27.4631 18.6273 27.3217 18.6902 27.1661C18.753 27.0104 18.7839 26.8437 18.7809 26.6759C18.778 26.5081 18.7412 26.3425 18.6729 26.1892C18.6046 26.0359 18.5061 25.8979 18.3833 25.7834L13.85 21.2501H30C30.3315 21.2501 30.6494 21.1184 30.8838 20.884C31.1183 20.6496 31.25 20.3316 31.25 20.0001C31.25 19.6686 31.1183 19.3506 30.8838 19.1162C30.6494 18.8818 30.3315 18.7501 30 18.7501H13.85L18.3833 14.2168Z" fill="#002E53"/>
</g>
</svg>
