<svg width="75" height="75" viewBox="0 0 75 75" fill="none" xmlns="http://www.w3.org/2000/svg">
<g id="Frame" clip-path="url(#clip0_118_5966)">
<path id="Vector" d="M9.375 0C6.8886 0 4.50403 0.987721 2.74587 2.74587C0.987721 4.50403 0 6.8886 0 9.375L0 65.625C0 68.1114 0.987721 70.496 2.74587 72.2541C4.50403 74.0123 6.8886 75 9.375 75H65.625C68.1114 75 70.496 74.0123 72.2541 72.2541C74.0123 70.496 75 68.1114 75 65.625V9.375C75 6.8886 74.0123 4.50403 72.2541 2.74587C70.496 0.987721 68.1114 0 65.625 0L9.375 0ZM43.5141 18.7594V56.25H37.3641V25.0219H37.0594L28.4625 31.2V25.2422L37.3641 18.7594H43.5141Z" fill="#ECEDEC"/>
</g>
<defs>
<clipPath id="clip0_118_5966">
<rect width="75" height="75" fill="white"/>
</clipPath>
</defs>
</svg>
