<svg width="24" height="24" viewBox="0 0 24 24" fill="none" xmlns="http://www.w3.org/2000/svg">
<g id="Frame">
<path id="Vector" d="M5.5 2H17C17.663 2 18.2989 2.26339 18.7678 2.73223C19.2366 3.20107 19.5 3.83696 19.5 4.5V11.313C18.3605 10.9438 17.1411 10.8967 15.9765 11.1768C14.8119 11.4569 13.7473 12.0534 12.9003 12.9003C12.0534 13.7473 11.4569 14.8119 11.1768 15.9765C10.8967 17.1411 10.9438 18.3605 11.313 19.5H4.5C4.5 19.7652 4.60536 20.0196 4.79289 20.2071C4.98043 20.3946 5.23478 20.5 5.5 20.5H11.732C12.0183 21.0486 12.3813 21.5537 12.81 22H5.5C4.83696 22 4.20107 21.7366 3.73223 21.2678C3.26339 20.7989 3 20.163 3 19.5V4.5C3 3.83696 3.26339 3.20107 3.73223 2.73223C4.20107 2.26339 4.83696 2 5.5 2ZM7 5C6.73478 5 6.48043 5.10536 6.29289 5.29289C6.10536 5.48043 6 5.73478 6 6V7C6 7.26522 6.10536 7.51957 6.29289 7.70711C6.48043 7.89464 6.73478 8 7 8H15C15.2652 8 15.5196 7.89464 15.7071 7.70711C15.8946 7.51957 16 7.26522 16 7V6C16 5.73478 15.8946 5.48043 15.7071 5.29289C15.5196 5.10536 15.2652 5 15 5H7ZM23 17.5C23 16.0413 22.4205 14.6424 21.3891 13.6109C20.3576 12.5795 18.9587 12 17.5 12C16.0413 12 14.6424 12.5795 13.6109 13.6109C12.5795 14.6424 12 16.0413 12 17.5C12 18.9587 12.5795 20.3576 13.6109 21.3891C14.6424 22.4205 16.0413 23 17.5 23C18.9587 23 20.3576 22.4205 21.3891 21.3891C22.4205 20.3576 23 18.9587 23 17.5ZM16.914 15.097L19.72 16.937C19.8069 16.9928 19.8783 17.0698 19.9273 17.1608C19.9762 17.2518 20.0013 17.3537 20 17.457C20.0001 17.561 19.9754 17.6635 19.928 17.756C19.8832 17.8476 19.8149 17.9256 19.73 17.982L16.923 19.897C16.8742 19.9299 16.821 19.9558 16.765 19.974C16.635 20.0155 16.4943 20.0073 16.37 19.951C16.2984 19.9175 16.2331 19.8718 16.177 19.816C16.1228 19.757 16.0789 19.6894 16.047 19.616C16.0158 19.5409 15.9998 19.4603 16 19.379V15.621C15.9995 15.5007 16.0339 15.3828 16.099 15.2816C16.1642 15.1804 16.2572 15.1003 16.367 15.051C16.4542 15.0101 16.5505 14.9928 16.6465 15.0007C16.7424 15.0086 16.8347 15.0414 16.914 15.096V15.097Z" fill="#AFAFAF"/>
</g>
</svg>
