<svg width="75" height="75" viewBox="0 0 75 75" fill="none" xmlns="http://www.w3.org/2000/svg">
<g id="Frame" clip-path="url(#clip0_118_5985)">
<path id="Vector" d="M9.375 0C6.8886 0 4.50403 0.987721 2.74587 2.74587C0.987721 4.50403 0 6.8886 0 9.375L0 65.625C0 68.1114 0.987721 70.496 2.74587 72.2541C4.50403 74.0123 6.8886 75 9.375 75H65.625C68.1114 75 70.496 74.0123 72.2541 72.2541C74.0123 70.496 75 68.1114 75 65.625V9.375C75 6.8886 74.0123 4.50403 72.2541 2.74587C70.496 0.987721 68.1114 0 65.625 0L9.375 0ZM37.1156 39.4406H32.9953V34.4156H36.9234C40.5797 34.4156 43.2422 31.9688 43.2141 28.6172C43.2141 25.2938 40.575 23.0156 36.8953 23.0156C33.1922 23.0156 30.7453 25.35 30.5766 27.9609H24.7266C24.8953 22.6313 29.1797 18.0469 37.0312 18.0188C44.5031 17.9625 49.2562 22.1672 49.3922 27.6844C49.5 33.0141 45.2438 36.0094 42.4453 36.4734V36.8016C45.7406 37.1297 50.4609 39.8016 50.5734 45.7875C50.6859 52.6266 44.5875 57.0187 36.8391 57.0187C28.8469 57.0187 24.15 52.4859 23.9297 46.9688H29.6719C29.9484 49.7672 32.8594 51.9375 36.8953 51.9656C41.4562 51.9938 44.3953 49.3266 44.3391 45.6188C44.3109 41.9672 41.4281 39.4406 37.1156 39.4406Z" fill="#ECEDEC"/>
</g>
<defs>
<clipPath id="clip0_118_5985">
<rect width="75" height="75" fill="white"/>
</clipPath>
</defs>
</svg>
