<svg width="75" height="75" viewBox="0 0 75 75" fill="none" xmlns="http://www.w3.org/2000/svg">
<g id="Frame" clip-path="url(#clip0_118_6106)">
<g id="Group">
<path id="Vector" d="M38.0203 36.8578C33.7078 36.8578 30.6891 39.9047 30.6891 44.2453C30.6891 49.0828 33.9844 51.9094 37.9922 51.9094C42.0609 51.9094 45.2719 49.4109 45.2719 44.2734C45.2719 39.3047 41.7844 36.8578 38.0203 36.8578Z" fill="#ECEDEC"/>
<path id="Vector_2" d="M9.375 0C6.8886 0 4.50403 0.987721 2.74587 2.74587C0.987721 4.50403 0 6.8886 0 9.375L0 65.625C0 68.1114 0.987721 70.496 2.74587 72.2541C4.50403 74.0123 6.8886 75 9.375 75H65.625C68.1114 75 70.496 74.0123 72.2541 72.2541C74.0123 70.496 75 68.1114 75 65.625V9.375C75 6.8886 74.0123 4.50403 72.2541 2.74587C70.496 0.987721 68.1114 0 65.625 0L9.375 0ZM38.4844 18.0703C46.0406 18.0703 50.2734 22.7109 50.5453 26.9719H44.5031C44.0344 25.2938 42.1125 23.1516 38.3531 23.1516C33.3 23.1516 29.8359 28.2609 29.8922 37.3828H30.2766C31.35 34.8281 34.2844 31.9688 39.5578 31.9688C45.4359 31.9688 51.3141 36.0938 51.3141 43.9453C51.3141 52.2422 45.6047 56.9906 37.9688 56.9906C33.6 56.9906 29.3438 55.4531 26.6766 51.1125C24.9469 48.2859 23.8781 44.2734 23.8781 38.7281C23.8781 24.6094 29.7281 18.0703 38.4891 18.0703H38.4844Z" fill="#ECEDEC"/>
</g>
</g>
<defs>
<clipPath id="clip0_118_6106">
<rect width="75" height="75" fill="white"/>
</clipPath>
</defs>
</svg>
