<svg width="75" height="75" viewBox="0 0 75 75" fill="none" xmlns="http://www.w3.org/2000/svg">
<g id="Frame" clip-path="url(#clip0_118_5994)">
<g id="Group">
<path id="Vector" d="M29.1797 43.5047V43.7531H41.4844V23.7328H41.1797C37.1156 29.9672 32.8031 36.8859 29.1797 43.5047Z" fill="#ECEDEC"/>
<path id="Vector_2" d="M9.375 0C6.8886 0 4.50403 0.987721 2.74587 2.74587C0.987721 4.50403 0 6.8886 0 9.375L0 65.625C0 68.1114 0.987721 70.496 2.74587 72.2541C4.50403 74.0123 6.8886 75 9.375 75H65.625C68.1114 75 70.496 74.0123 72.2541 72.2541C74.0123 70.496 75 68.1114 75 65.625V9.375C75 6.8886 74.0123 4.50403 72.2541 2.74587C70.496 0.987721 68.1114 0 65.625 0L9.375 0ZM35.2453 23.7047C36.2766 22.0547 37.3031 20.4094 38.325 18.7594H47.3859V43.7531H52.1109V48.9422H47.3906V56.25H41.4844V48.9422H23.3344V43.6969C26.9438 37.0078 31.0922 30.3516 35.2453 23.7047Z" fill="#ECEDEC"/>
</g>
</g>
<defs>
<clipPath id="clip0_118_5994">
<rect width="75" height="75" fill="white"/>
</clipPath>
</defs>
</svg>
