<svg width="75" height="75" viewBox="0 0 75 75" fill="none" xmlns="http://www.w3.org/2000/svg">
<g id="Frame" clip-path="url(#clip0_118_5976)">
<path id="Vector" d="M9.375 0C6.8886 0 4.50403 0.987721 2.74587 2.74587C0.987721 4.50403 0 6.8886 0 9.375L0 65.625C0 68.1114 0.987721 70.496 2.74587 72.2541C4.50403 74.0123 6.8886 75 9.375 75H65.625C68.1114 75 70.496 74.0123 72.2541 72.2541C74.0123 70.496 75 68.1114 75 65.625V9.375C75 6.8886 74.0123 4.50403 72.2541 2.74587C70.496 0.987721 68.1114 0 65.625 0L9.375 0ZM31.1531 29.25V29.5781H25.1953V29.2781C25.1953 23.5922 29.3156 18.0188 37.5563 18.0188C44.9719 18.0188 49.8047 22.4672 49.8047 28.4016C49.8047 33.0984 46.9922 36.2156 43.7719 39.7922L43.3219 40.2937L34.0688 50.7V51.0609H50.4656V56.25H25.4156V52.35L39.3375 36.9141C41.3719 34.6875 43.5703 32.1891 43.5703 28.9219C43.5703 25.4344 40.9594 23.1281 37.4156 23.1281C33.4641 23.1281 31.1531 26.0109 31.1531 29.25Z" fill="#ECEDEC"/>
</g>
<defs>
<clipPath id="clip0_118_5976">
<rect width="75" height="75" fill="white"/>
</clipPath>
</defs>
</svg>
